<svg width="64" height="18" viewBox="0 0 64 18" fill="none" xmlns="http://www.w3.org/2000/svg">
<path d="M1.65647 3.43115V14H5.61887C8.78293 14 10.592 12.0591 10.592 8.66797C10.592 5.3501 8.76096 3.43115 5.61887 3.43115H1.65647ZM3.54611 5.06445H5.36984C7.4426 5.06445 8.66574 6.39014 8.66574 8.69727C8.66574 11.0557 7.4719 12.3667 5.36984 12.3667H3.54611V5.06445ZM14.625 14V3.43115H12.7353V14H14.625ZM16.739 11.1289C16.8342 13.0479 18.4382 14.2637 20.8625 14.2637C23.426 14.2637 25.0154 12.9819 25.0154 10.9238C25.0154 9.3125 24.1145 8.41895 21.9685 7.93555L20.7527 7.65723C19.4416 7.35693 18.907 6.93945 18.907 6.229C18.907 5.32812 19.7126 4.74219 20.9285 4.74219C22.0857 4.74219 22.906 5.32812 23.0378 6.2583H24.8469C24.759 4.44189 23.155 3.16748 20.9358 3.16748C18.5701 3.16748 17.0027 4.44189 17.0027 6.36084C17.0027 7.93555 17.9036 8.8877 19.8225 9.31982L21.1921 9.63477C22.5471 9.94971 23.1257 10.3965 23.1257 11.1582C23.1257 12.0444 22.2248 12.6816 20.9797 12.6816C19.6394 12.6816 18.7019 12.0737 18.5847 11.1289H16.739ZM38.0425 14V3.43115H35.8306L32.6519 11.1289H32.52L29.3413 3.43115H27.1294V14H28.8872V6.56592H28.9897L31.9121 13.5898H33.2598L36.1821 6.56592H36.2847V14H38.0425ZM42.5295 14V3.43115H40.6399V14H42.5295ZM44.6436 11.1289C44.7388 13.0479 46.3428 14.2637 48.7671 14.2637C51.3306 14.2637 52.9199 12.9819 52.9199 10.9238C52.9199 9.3125 52.0191 8.41895 49.8731 7.93555L48.6572 7.65723C47.3462 7.35693 46.8115 6.93945 46.8115 6.229C46.8115 5.32812 47.6172 4.74219 48.833 4.74219C49.9903 4.74219 50.8106 5.32812 50.9424 6.2583H52.7515C52.6636 4.44189 51.0596 3.16748 48.8404 3.16748C46.4746 3.16748 44.9072 4.44189 44.9072 6.36084C44.9072 7.93555 45.8081 8.8877 47.7271 9.31982L49.0967 9.63477C50.4517 9.94971 51.0303 10.3965 51.0303 11.1582C51.0303 12.0444 50.1294 12.6816 48.8843 12.6816C47.544 12.6816 46.6065 12.0737 46.4893 11.1289H44.6436ZM54.5506 11.1289C54.6458 13.0479 56.2498 14.2637 58.6741 14.2637C61.2376 14.2637 62.8269 12.9819 62.8269 10.9238C62.8269 9.3125 61.9261 8.41895 59.7801 7.93555L58.5642 7.65723C57.2532 7.35693 56.7185 6.93945 56.7185 6.229C56.7185 5.32812 57.5242 4.74219 58.74 4.74219C59.8972 4.74219 60.7176 5.32812 60.8494 6.2583H62.6585C62.5706 4.44189 60.9666 3.16748 58.7473 3.16748C56.3816 3.16748 54.8142 4.44189 54.8142 6.36084C54.8142 7.93555 55.7151 8.8877 57.6341 9.31982L59.0037 9.63477C60.3587 9.94971 60.9373 10.3965 60.9373 11.1582C60.9373 12.0444 60.0364 12.6816 58.7913 12.6816C57.451 12.6816 56.5135 12.0737 56.3963 11.1289H54.5506Z" fill="#9586A8"/>
</svg>
